HIERARCHY
ROOT hip
{
  OFFSET 3.97563 81.3841 267.824
  CHANNELS 6 Xposition Yposition Zposition Zrotation Xrotation Yrotation
  JOINT abdomen
  {
    OFFSET 0 20.6881 -0.73152
    CHANNELS 3 Zrotation Xrotation Yrotation
    JOINT chest
    {
      OFFSET 0 11.7043 -0.48768
      CHANNELS 3 Zrotation Xrotation Yrotation
      JOINT neck
      {
        OFFSET 0 22.1894 -2.19456
        CHANNELS 3 Zrotation Xrotation Yrotation
        JOINT head
        {
          OFFSET -0.24384 7.07133 1.2192
          CHANNELS 3 Zrotation Xrotation Yrotation
          JOINT leftEye
          {
            OFFSET 4.14528 8.04674 8.04672
            CHANNELS 3 Zrotation Xrotation Yrotation
            End Site
            {
              OFFSET 1 0 0
            }
          }
          JOINT rightEye
          {
            OFFSET -3.6576 8.04674 8.04672
            CHANNELS 3 Zrotation Xrotation Yrotation
            End Site
            {
              OFFSET 1 0 0
            }
          }
        }
      }
      JOINT rCollar
      {
        OFFSET -2.68224 19.2634 -4.8768
        CHANNELS 3 Zrotation Xrotation Yrotation
        JOINT rShldr
        {
          OFFSET -8.77824 -1.95073 1.46304
          CHANNELS 3 Zrotation Xrotation Yrotation
          JOINT rForeArm
          {
            OFFSET -28.1742 -1.7115 0.48768
            CHANNELS 3 Zrotation Xrotation Yrotation
            JOINT rHand
            {
              OFFSET -22.5879 0.773209 7.07136
              CHANNELS 3 Zrotation Xrotation Yrotation
              JOINT rThumb1
              {
                OFFSET -1.2192 -0.487915 3.41376
                CHANNELS 3 Zrotation Xrotation Yrotation
                JOINT rThumb2
                {
                  OFFSET -3.37035 -0.52449 3.41376
                  CHANNELS 3 Zrotation Xrotation Yrotation
                  End Site
                  {
                    OFFSET -1.78271 -1.18214 1.43049
                  }
                }
              }
              JOINT rIndex1
              {
                OFFSET -7.75947 0.938293 5.60832
                CHANNELS 3 Zrotation Xrotation Yrotation
                JOINT rIndex2
                {
                  OFFSET -2.54057 -0.884171 1.56538
                  CHANNELS 3 Zrotation Xrotation Yrotation
                  End Site
                  {
                    OFFSET -1.62519 -0.234802 1.16502
                  }
                }
              }
              JOINT rMid1
              {
                OFFSET -8.24714 1.18213 3.41376
                CHANNELS 3 Zrotation Xrotation Yrotation
                JOINT rMid2
                {
                  OFFSET -3.10165 -0.590103 1.0647
                  CHANNELS 3 Zrotation Xrotation Yrotation
                  End Site
                  {
                    OFFSET -2.48547 -0.328903 0.83742
                  }
                }
              }
              JOINT rRing1
              {
                OFFSET -8.82822 0.546677 1.51678
                CHANNELS 3 Zrotation Xrotation Yrotation
                JOINT rRing2
                {
                  OFFSET -2.60934 -0.819778 -0.0198488
                  CHANNELS 3 Zrotation Xrotation Yrotation
                  End Site
                  {
                    OFFSET -2.33842 -0.294052 0.168128
                  }
                }
              }
              JOINT rPinky1
              {
                OFFSET -8.27202 -0.0477905 -0.4584
                CHANNELS 3 Zrotation Xrotation Yrotation
                JOINT rPinky2
                {
                  OFFSET -1.82734 -0.647385 -0.700984
                  CHANNELS 3 Zrotation Xrotation Yrotation
                  End Site
                  {
                    OFFSET -1.69225 -0.51767 -0.607171
                  }
                }
              }
            }
          }
        }
      }
      JOINT lCollar
      {
        OFFSET 2.68224 19.2634 -4.8768
        CHANNELS 3 Zrotation Xrotation Yrotation
        JOINT lShldr
        {
          OFFSET 8.77824 -1.95073 1.46304
          CHANNELS 3 Zrotation Xrotation Yrotation
          JOINT lForeArm
          {
            OFFSET 28.1742 -1.7115 0.48768
            CHANNELS 3 Zrotation Xrotation Yrotation
            JOINT lHand
            {
              OFFSET 22.5879 0.773209 7.07136
              CHANNELS 3 Zrotation Xrotation Yrotation
              JOINT lThumb1
              {
                OFFSET 1.2192 -0.487915 3.41376
                CHANNELS 3 Zrotation Xrotation Yrotation
                JOINT lThumb2
                {
                  OFFSET 3.37035 -0.52449 3.41376
                  CHANNELS 3 Zrotation Xrotation Yrotation
                  End Site
                  {
                    OFFSET 1.78271 -1.18214 1.43049
                  }
                }
              }
              JOINT lIndex1
              {
                OFFSET 7.75947 0.938293 5.60832
                CHANNELS 3 Zrotation Xrotation Yrotation
                JOINT lIndex2
                {
                  OFFSET 2.54057 -0.884171 1.56538
                  CHANNELS 3 Zrotation Xrotation Yrotation
                  End Site
                  {
                    OFFSET 1.62519 -0.234802 1.16502
                  }
                }
              }
              JOINT lMid1
              {
                OFFSET 8.24714 1.18213 3.41376
                CHANNELS 3 Zrotation Xrotation Yrotation
                JOINT lMid2
                {
                  OFFSET 3.10165 -0.590103 1.0647
                  CHANNELS 3 Zrotation Xrotation Yrotation
                  End Site
                  {
                    OFFSET 2.48547 -0.328903 0.83742
                  }
                }
              }
              JOINT lRing1
              {
                OFFSET 8.82822 0.546677 1.51678
                CHANNELS 3 Zrotation Xrotation Yrotation
                JOINT lRing2
                {
                  OFFSET 2.60934 -0.819778 -0.0198488
                  CHANNELS 3 Zrotation Xrotation Yrotation
                  End Site
                  {
                    OFFSET 2.33842 -0.294052 0.168128
                  }
                }
              }
              JOINT lPinky1
              {
                OFFSET 8.27202 -0.0477905 -0.4584
                CHANNELS 3 Zrotation Xrotation Yrotation
                JOINT lPinky2
                {
                  OFFSET 1.82734 -0.647385 -0.700984
                  CHANNELS 3 Zrotation Xrotation Yrotation
                  End Site
                  {
                    OFFSET 1.69225 -0.51767 -0.607171
                  }
                }
              }
            }
          }
        }
      }
    }
  }
  JOINT rButtock
  {
    OFFSET -8.77824 4.35084 1.2192
    CHANNELS 3 Zrotation Xrotation Yrotation
    JOINT rThigh
    {
      OFFSET 0 -1.70687 -2.19456
      CHANNELS 3 Zrotation Xrotation Yrotation
      JOINT rShin
      {
        OFFSET 0 -36.8199 0.73152
        CHANNELS 3 Zrotation Xrotation Yrotation
        JOINT rFoot
        {
          OFFSET 0.73152 -45.1104 -5.12064
          CHANNELS 3 Zrotation Xrotation Yrotation
          End Site
          {
            OFFSET -1.1221 -3.69964 12.103
          }
        }
      }
    }
  }
  JOINT lButtock
  {
    OFFSET 8.77824 4.35084 1.2192
    CHANNELS 3 Zrotation Xrotation Yrotation
    JOINT lThigh
    {
      OFFSET 0 -1.70687 -2.19456
      CHANNELS 3 Zrotation Xrotation Yrotation
      JOINT lShin
      {
        OFFSET 0 -36.8199 0.73152
        CHANNELS 3 Zrotation Xrotation Yrotation
        JOINT lFoot
        {
          OFFSET -0.73152 -45.1104 -5.12064
          CHANNELS 3 Zrotation Xrotation Yrotation
          End Site
          {
            OFFSET 1.1221 -3.69964 12.103
          }
        }
      }
    }
  }
}
MOTION
Frames:	4
Frame Time:	0.00833333
1.4259 81.3323 88.7252 1.14299 -3.59839 -5.7069 -2.14891 9.82389 6.01018 -1.62834 -4.06806 1.28398 -1.48546 -0.0450374 -3.0013 2.19714 -1.9094 -5.48232 -0 0 0 -0 0 0 -1.91742e-014 2.78279e-014 7.4743e-014 78.9837 10.6863 7.89532 -13.7799 -6.77817 25.1123 -7.37966e-005 -0.245289 -0.0344734 -5.58847e-010 1.40218e-009 3.81126e-010 -9.67389e-010 2.42716e-009 6.61767e-010 -5.58843e-010 1.40218e-009 3.8111e-010 7.73091 5.47488 0.417314 -5.58848e-010 1.40218e-009 3.81123e-010 2.90554 0.965183 0.102902 -5.58843e-010 1.40218e-009 3.81123e-010 10.2786 0.731801 0.0259123 -5.58857e-010 1.40218e-009 3.81129e-010 2.22167 -0.733487 -0.20892 -1.93913e-014 2.7831e-014 7.42958e-014 -80.875 13.8457 7.21054 10.1729 -4.24704 -18.126 0.0241436 -4.43126 0.62403 2.05504e-010 -7.33045e-010 4.55252e-010 3.5423e-010 -1.27035e-009 7.87986e-010 2.055e-010 -7.33041e-010 4.55265e-010 -7.73091 5.47488 -0.417314 2.05506e-010 -7.33044e-010 4.55249e-010 -2.90554 0.965183 -0.102902 2.05502e-010 -7.33046e-010 4.55248e-010 -10.2786 0.731801 -0.0259123 2.05511e-010 -7.33044e-010 4.55239e-010 -2.22167 -0.733487 0.20892 -2.03217e-016 0 -3.88251e-019 0.229172 -9.30283 2.30117 -1.33134 62.3071 1.37933 -0.453099 23.6331 0.974441 2.03217e-016 0 3.88251e-019 -6.32512 -24.9882 -3.16515 0.265315 34.6828 0.291161 -0.158707 -4.29376 -3.55714 
1.52213 81.32 89.664 1.47283 -3.72809 -5.74462 -2.58 9.96301 5.89813 -1.50285 -4.16225 1.23753 -1.49192 0.0248538 -2.93798 2.12823 -1.92688 -5.3581 -0 0 0 -0 0 0 -1.75543e-014 -1.17641e-014 2.86211e-014 79.1142 10.5051 7.73151 -13.5834 -6.62459 24.7169 0.00024592 0.151718 0.0213359 -2.72913e-010 5.87103e-010 4.62824e-010 -4.7232e-010 1.01671e-009 8.01418e-010 -2.72909e-010 5.87106e-010 4.6281e-010 7.73091 5.47488 0.417314 -2.72914e-010 5.87104e-010 4.62822e-010 2.90554 0.965183 0.102902 -2.72908e-010 5.87104e-010 4.62823e-010 10.2786 0.731801 0.0259123 -2.72921e-010 5.87106e-010 4.62831e-010 2.22167 -0.733487 -0.20892 -1.77591e-014 -1.17615e-014 2.81898e-014 -80.697 14.4598 7.02504 10.3435 -4.35374 -18.4457 0.0307956 -5.00264 0.704873 1.69022e-010 -5.2416e-010 -3.85356e-012 2.92812e-010 -9.06888e-010 -6.04178e-012 1.69018e-010 -5.24156e-010 -3.8409e-012 -7.73091 5.47488 -0.417314 1.69023e-010 -5.24159e-010 -3.85608e-012 -2.90554 0.965183 -0.102902 1.69018e-010 -5.2416e-010 -3.85592e-012 -10.2786 0.731801 -0.0259123 1.69027e-010 -5.24159e-010 -3.86316e-012 -2.22167 -0.733487 0.20892 -2.03217e-016 0 -3.88251e-019 -0.235214 -10.9317 1.98009 -1.51172 64.4192 1.55595 -0.214328 22.8094 0.139884 2.03217e-016 0 3.88251e-019 -6.81998 -24.2649 -3.17335 0.262761 34.8732 0.272648 -0.13824 -4.86799 -3.25798 
1.575 81.311 90.6284 1.6425 -3.87287 -5.7678 -2.80517 10.1511 5.75169 -1.3805 -4.31954 1.18701 -1.52567 0.094707 -2.8616 2.03994 -1.8502 -5.20239 -0 0 0 -0 0 0 -4.96448e-015 -8.49564e-014 -6.78353e-014 79.2153 10.2927 7.5466 -13.3522 -6.44551 24.2555 -0.000591713 0.676973 0.0951868 3.00977e-010 -1.09057e-009 5.01585e-010 5.21198e-010 -1.88659e-009 8.65474e-010 3.0098e-010 -1.09056e-009 5.01573e-010 7.73091 5.47488 0.417314 3.00977e-010 -1.09057e-009 5.01586e-010 2.90554 0.965183 0.102902 3.00983e-010 -1.09057e-009 5.01587e-010 10.2786 0.731801 0.0259123 3.00971e-010 -1.09056e-009 5.01597e-010 2.22167 -0.733487 -0.20892 -5.13661e-015 -8.49554e-014 -6.82049e-014 -80.5581 15.1891 6.87296 10.544 -4.48021 -18.8232 0.0388089 -5.60923 0.790869 8.71702e-011 1.02156e-010 -8.46024e-010 1.54333e-010 1.80623e-010 -1.46262e-009 8.71646e-011 1.0216e-010 -8.46012e-010 -7.73091 5.47488 -0.417314 8.71704e-011 1.02158e-010 -8.46026e-010 -2.90554 0.965183 -0.102902 8.71636e-011 1.02157e-010 -8.46024e-010 -10.2786 0.731801 -0.0259123 8.71737e-011 1.02157e-010 -8.46028e-010 -2.22167 -0.733487 0.20892 -2.03217e-016 0 -3.88251e-019 -0.525297 -12.5013 1.56457 -1.70859 66.3573 1.75456 -0.0517896 21.3785 -0.553247 2.03217e-016 0 3.88251e-019 -7.11593 -23.5111 -3.14212 0.260013 35.0684 0.245864 -0.122362 -5.45649 -3.04813 
1.64145 81.3421 91.6863 1.74902 -4.01039 -5.76879 -2.94437 10.3331 5.5759 -1.25987 -4.46489 1.13201 -1.5664 0.163932 -2.78666 1.94436 -1.76544 -5.04794 -0 0 0 -0 0 0 1.10528e-014 -1.58708e-013 -1.67137e-013 79.3207 10.0287 7.37096 -13.1166 -6.26469 23.7904 -0.00241056 1.29582 0.182192 8.8767e-010 -2.82223e-009 4.93543e-010 1.53679e-009 -4.88331e-009 8.48547e-010 8.87673e-010 -2.82222e-009 4.93532e-010 7.73091 5.47488 0.417314 8.8767e-010 -2.82223e-009 4.93545e-010 2.90554 0.965183 0.102902 8.87677e-010 -2.82223e-009 4.93546e-010 10.2786 0.731801 0.0259123 8.87667e-010 -2.82222e-009 4.93559e-010 2.22167 -0.733487 -0.20892 1.09229e-014 -1.58708e-013 -1.67434e-013 -80.3992 15.858 6.67596 10.729 -4.59743 -19.1741 0.0455475 -6.06132 0.855104 1.79956e-012 8.12137e-010 -1.68145e-009 9.76515e-012 1.41295e-009 -2.90754e-009 1.79303e-012 8.1214e-010 -1.68144e-009 -7.73091 5.47488 -0.417314 1.79905e-012 8.12139e-010 -1.68145e-009 -2.90554 0.965183 -0.102902 1.79044e-012 8.12139e-010 -1.68145e-009 -10.2786 0.731801 -0.0259123 1.80205e-012 8.12139e-010 -1.68145e-009 -2.22167 -0.733487 0.20892 -2.03217e-016 0 -3.88251e-019 -0.74809 -14.0317 1.12223 -1.91525 68.0895 1.96729 0.0490465 19.6314 -1.17803 2.03217e-016 0 3.88251e-019 -7.32389 -22.7449 -3.08656 0.256268 35.2319 0.213398 -0.107738 -6.04107 -2.89179 
